<svg xmlns="http://www.w3.org/2000/svg" viewBox="0 0 600 600" role="img">
  <defs>
    <clipPath id="corpo-a"><path d="M178 205 L196 498 Q198 522 224 522 L376 522 Q402 522 404 498 L422 205 Z"/></clipPath>
    <linearGradient id="vidro-a" x1="0" x2="1">
      <stop offset="0" stop-color="#fff" stop-opacity=".28"/>
      <stop offset=".35" stop-color="#fff" stop-opacity=".04"/>
      <stop offset=".8" stop-color="#fff" stop-opacity="0"/>
      <stop offset="1" stop-color="#fff" stop-opacity=".22"/>
    </linearGradient></defs>
  <rect width="600" height="600" fill="#FBEBD8"/><circle cx="300" cy="330" r="235" fill="#F3D4AE"/>
  <g fill="#fff" opacity=".5"><circle cx="92" cy="110" r="6"/><circle cx="520" cy="96" r="4"/><circle cx="540" cy="470" r="7"/><circle cx="70" cy="455" r="4"/></g>
  
  <g>
    <ellipse cx="300" cy="528" rx="150" ry="16" fill="#3A2118" opacity=".14"/>
    <g clip-path="url(#corpo-a)">
      <rect x="120" y="190" width="360" height="350" fill="#e8c38c"/>
      <path d="M130 445 q25 -6 50 0 q25 6 50 0 q25 -6 50 0 q25 6 50 0 q25 -6 50 0 q25 6 50 0 L470 540 L130 540 Z" fill="#e8c38c"/>
      <path d="M130 400 q25 -9 50 0 q25 9 50 0 q25 -9 50 0 q25 9 50 0 q25 -9 50 0 q25 9 50 0 L470 448 L130 448 Z" fill="#c98b45"/>
      <path d="M130 325 q25 -6 50 0 q25 6 50 0 q25 -6 50 0 q25 6 50 0 q25 -6 50 0 q25 6 50 0 L470 404 L130 404 Z" fill="#e8c38c"/>
      <path d="M130 276 q25 -10 50 0 q25 10 50 0 q25 -10 50 0 q25 10 50 0 q25 -10 50 0 q25 10 50 0 L470 330 L130 330 Z" fill="#c98b45"/>
      <path d="M130 212 q25 -7 50 0 q25 7 50 0 q25 -7 50 0 q25 7 50 0 q25 -7 50 0 q25 7 50 0 L470 280 L130 280 Z" fill="#d79a54"/>
      <rect x="150" y="190" width="300" height="340" fill="url(#vidro-a)"/>
    </g>
    <path d="M178 205 L196 498 Q198 522 224 522 L376 522 Q402 522 404 498 L422 205" fill="none" stroke="#ffffff" stroke-opacity=".85" stroke-width="5" stroke-linejoin="round"/>
    <path d="M206 232 L218 480" stroke="#fff" stroke-opacity=".55" stroke-width="10" stroke-linecap="round"/>
    <rect x="160" y="196" width="280" height="16" rx="8" fill="#ffffff" opacity=".9"/>
    <path d="M166 204 Q300 112 434 204 Q300 222 166 204 Z" fill="#d79a54"/>
    <path d="M194 196 Q300 128 406 196" fill="none" stroke="#b8742f" stroke-width="12" stroke-linecap="round" opacity=".9"/>
    <path d="M226 168 Q300 140 360 160" fill="none" stroke="#fff" stroke-opacity=".45" stroke-width="7" stroke-linecap="round"/>
    <g transform="translate(240 174)"><path d="M-16 0 C -16 -14 16 -14 16 0 C 16 14 -16 14 -16 0 Z" fill="#9a6334"/><path d="M-10 0 C -6 -6 6 6 10 0 M0 -9 L0 9" stroke="#6b4423" stroke-width="2.4" fill="none" stroke-linecap="round"/></g><g transform="translate(295 156)"><path d="M-16 0 C -16 -14 16 -14 16 0 C 16 14 -16 14 -16 0 Z" fill="#9a6334"/><path d="M-10 0 C -6 -6 6 6 10 0 M0 -9 L0 9" stroke="#6b4423" stroke-width="2.4" fill="none" stroke-linecap="round"/></g><g transform="translate(352 172)"><path d="M-16 0 C -16 -14 16 -14 16 0 C 16 14 -16 14 -16 0 Z" fill="#9a6334"/><path d="M-10 0 C -6 -6 6 6 10 0 M0 -9 L0 9" stroke="#6b4423" stroke-width="2.4" fill="none" stroke-linecap="round"/></g><g transform="translate(320 186)"><path d="M-16 0 C -16 -14 16 -14 16 0 C 16 14 -16 14 -16 0 Z" fill="#9a6334"/><path d="M-10 0 C -6 -6 6 6 10 0 M0 -9 L0 9" stroke="#6b4423" stroke-width="2.4" fill="none" stroke-linecap="round"/></g>
  </g>
</svg>
