<svg xmlns="http://www.w3.org/2000/svg" viewBox="0 0 600 600" role="img">
  <defs>
    <clipPath id="corpo-a"><path d="M178 205 L196 498 Q198 522 224 522 L376 522 Q402 522 404 498 L422 205 Z"/></clipPath>
    <linearGradient id="vidro-a" x1="0" x2="1">
      <stop offset="0" stop-color="#fff" stop-opacity=".28"/>
      <stop offset=".35" stop-color="#fff" stop-opacity=".04"/>
      <stop offset=".8" stop-color="#fff" stop-opacity="0"/>
      <stop offset="1" stop-color="#fff" stop-opacity=".22"/>
    </linearGradient></defs>
  <rect width="600" height="600" fill="#FBE4E4"/><circle cx="300" cy="330" r="235" fill="#F5C9CB"/>
  <g fill="#fff" opacity=".5"><circle cx="92" cy="110" r="6"/><circle cx="520" cy="96" r="4"/><circle cx="540" cy="470" r="7"/><circle cx="70" cy="455" r="4"/></g>
  
  <g>
    <ellipse cx="300" cy="528" rx="150" ry="16" fill="#3A2118" opacity=".14"/>
    <g clip-path="url(#corpo-a)">
      <rect x="120" y="190" width="360" height="350" fill="#a3202f"/>
      <path d="M130 445 q25 -6 50 0 q25 6 50 0 q25 -6 50 0 q25 6 50 0 q25 -6 50 0 q25 6 50 0 L470 540 L130 540 Z" fill="#a3202f"/>
      <path d="M130 400 q25 -9 50 0 q25 9 50 0 q25 -9 50 0 q25 9 50 0 q25 -9 50 0 q25 9 50 0 L470 448 L130 448 Z" fill="#fbf3ec"/>
      <path d="M130 325 q25 -6 50 0 q25 6 50 0 q25 -6 50 0 q25 6 50 0 q25 -6 50 0 q25 6 50 0 L470 404 L130 404 Z" fill="#a3202f"/>
      <path d="M130 276 q25 -10 50 0 q25 10 50 0 q25 -10 50 0 q25 10 50 0 q25 -10 50 0 q25 10 50 0 L470 330 L130 330 Z" fill="#fbf3ec"/>
      <path d="M130 212 q25 -7 50 0 q25 7 50 0 q25 -7 50 0 q25 7 50 0 q25 -7 50 0 q25 7 50 0 L470 280 L130 280 Z" fill="#fffaf5"/>
      <rect x="150" y="190" width="300" height="340" fill="url(#vidro-a)"/>
    </g>
    <path d="M178 205 L196 498 Q198 522 224 522 L376 522 Q402 522 404 498 L422 205" fill="none" stroke="#ffffff" stroke-opacity=".85" stroke-width="5" stroke-linejoin="round"/>
    <path d="M206 232 L218 480" stroke="#fff" stroke-opacity=".55" stroke-width="10" stroke-linecap="round"/>
    <rect x="160" y="196" width="280" height="16" rx="8" fill="#ffffff" opacity=".9"/>
    <path d="M166 204 Q300 112 434 204 Q300 222 166 204 Z" fill="#fffaf5"/>
    <path d="M194 196 Q300 128 406 196" fill="none" stroke="#fbf3ec" stroke-width="12" stroke-linecap="round" opacity=".9"/>
    <path d="M226 168 Q300 140 360 160" fill="none" stroke="#fff" stroke-opacity=".45" stroke-width="7" stroke-linecap="round"/>
    <rect x="324.0" y="171.2" width="7.3" height="8.0" rx="2" fill="#a3202f"/><rect x="367.5" y="183.4" width="7.8" height="6.8" rx="2" fill="#a3202f"/><rect x="296.5" y="168.9" width="8.2" height="8.5" rx="2" fill="#a3202f"/><rect x="229.2" y="177.2" width="8.8" height="10.7" rx="2" fill="#a3202f"/><rect x="263.9" y="171.5" width="9.1" height="6.4" rx="2" fill="#a3202f"/><rect x="342.9" y="174.7" width="5.4" height="6.6" rx="2" fill="#a3202f"/><rect x="391.2" y="187.1" width="9.2" height="10.1" rx="2" fill="#a3202f"/><rect x="397.8" y="192.4" width="6.8" height="7.8" rx="2" fill="#a3202f"/><rect x="330.5" y="168.5" width="6.9" height="10.2" rx="2" fill="#a3202f"/><rect x="329.6" y="178.5" width="6.5" height="6.0" rx="2" fill="#a3202f"/><rect x="201.9" y="194.7" width="7.9" height="6.5" rx="2" fill="#a3202f"/><rect x="351.2" y="168.4" width="5.9" height="10.7" rx="2" fill="#a3202f"/><rect x="380.5" y="185.8" width="9.3" height="8.5" rx="2" fill="#a3202f"/><rect x="271.5" y="165.1" width="6.2" height="9.2" rx="2" fill="#a3202f"/><rect x="262.3" y="175.8" width="6.1" height="5.5" rx="2" fill="#a3202f"/><rect x="295.7" y="172.0" width="6.0" height="6.3" rx="2" fill="#a3202f"/><rect x="237.8" y="188.7" width="10.9" height="5.8" rx="2" fill="#a3202f"/><rect x="290.2" y="172.9" width="11.0" height="6.3" rx="2" fill="#a3202f"/><rect x="221.6" y="189.2" width="9.2" height="7.8" rx="2" fill="#a3202f"/><rect x="240.5" y="185.6" width="6.9" height="8.0" rx="2" fill="#a3202f"/><rect x="370.4" y="178.6" width="8.4" height="9.7" rx="2" fill="#a3202f"/><rect x="298.1" y="164.7" width="8.7" height="7.3" rx="2" fill="#a3202f"/><rect x="213.9" y="194.1" width="9.2" height="8.8" rx="2" fill="#a3202f"/><rect x="379.5" y="190.5" width="6.7" height="6.7" rx="2" fill="#a3202f"/><rect x="335.2" y="178.4" width="6.4" height="5.6" rx="2" fill="#a3202f"/><rect x="220.4" y="186.3" width="7.1" height="9.6" rx="2" fill="#a3202f"/>
  </g>
</svg>
