<svg xmlns="http://www.w3.org/2000/svg">
  <symbol id="sacola" viewBox="0 0 24 24" fill="none" stroke="currentColor" stroke-width="2" stroke-linecap="round" stroke-linejoin="round"><path d="M5 8h14l-1.2 11.2a2 2 0 0 1-2 1.8H8.2a2 2 0 0 1-2-1.8L5 8Z"/><path d="M9 10V7a3 3 0 0 1 6 0v3"/></symbol>
  <symbol id="usuario" viewBox="0 0 24 24" fill="none" stroke="currentColor" stroke-width="2" stroke-linecap="round" stroke-linejoin="round"><circle cx="12" cy="8" r="4"/><path d="M4 21a8 8 0 0 1 16 0"/></symbol>
  <symbol id="menu" viewBox="0 0 24 24" fill="none" stroke="currentColor" stroke-width="2" stroke-linecap="round"><path d="M4 7h16M4 12h16M4 17h16"/></symbol>
  <symbol id="fechar" viewBox="0 0 24 24" fill="none" stroke="currentColor" stroke-width="2" stroke-linecap="round"><path d="M6 6l12 12M18 6 6 18"/></symbol>
  <symbol id="mais" viewBox="0 0 24 24" fill="none" stroke="currentColor" stroke-width="2.4" stroke-linecap="round"><path d="M12 5v14M5 12h14"/></symbol>
  <symbol id="menos" viewBox="0 0 24 24" fill="none" stroke="currentColor" stroke-width="2.4" stroke-linecap="round"><path d="M5 12h14"/></symbol>
  <symbol id="lixeira" viewBox="0 0 24 24" fill="none" stroke="currentColor" stroke-width="2" stroke-linecap="round" stroke-linejoin="round"><path d="M4 7h16M10 11v6M14 11v6M6 7l1 12a2 2 0 0 0 2 2h6a2 2 0 0 0 2-2l1-12M9 7V4h6v3"/></symbol>
  <symbol id="estrela" viewBox="0 0 24 24"><path fill="currentColor" d="M12 2.8l2.8 5.8 6.3.9-4.6 4.4 1.1 6.3L12 17.2l-5.6 3 1.1-6.3-4.6-4.4 6.3-.9L12 2.8Z"/></symbol>
  <symbol id="caminhao" viewBox="0 0 24 24" fill="none" stroke="currentColor" stroke-width="2" stroke-linecap="round" stroke-linejoin="round"><path d="M2 6h11v10H2zM13 10h4l4 4v2h-8"/><circle cx="6" cy="18" r="2"/><circle cx="17" cy="18" r="2"/></symbol>
  <symbol id="coracao" viewBox="0 0 24 24" fill="none" stroke="currentColor" stroke-width="2" stroke-linecap="round" stroke-linejoin="round"><path d="M12 20s-7-4.4-9-9a4.8 4.8 0 0 1 9-3 4.8 4.8 0 0 1 9 3c-2 4.6-9 9-9 9Z"/></symbol>
  <symbol id="batedor" viewBox="0 0 24 24" fill="none" stroke="currentColor" stroke-width="2" stroke-linecap="round" stroke-linejoin="round"><path d="M6 14.5A4 4 0 1 1 7.6 6.8 4.6 4.6 0 0 1 16.4 6.8 4 4 0 1 1 18 14.5V20H6v-5.5Z"/><path d="M6 16.5h12"/></symbol>
  <symbol id="folha" viewBox="0 0 24 24" fill="none" stroke="currentColor" stroke-width="2" stroke-linecap="round" stroke-linejoin="round"><path d="M5 19c0-9 5-14 15-14 0 10-5 15-14 15"/><path d="M5 19 13 11"/></symbol>
  <symbol id="escudo" viewBox="0 0 24 24" fill="none" stroke="currentColor" stroke-width="2" stroke-linecap="round" stroke-linejoin="round"><path d="M12 3 4 6v6c0 5 3.4 8 8 9 4.6-1 8-4 8-9V6l-8-3Z"/><path d="m9 12 2 2 4-4"/></symbol>
  <symbol id="presente" viewBox="0 0 24 24" fill="none" stroke="currentColor" stroke-width="2" stroke-linecap="round" stroke-linejoin="round"><path d="M3 9h18v4H3zM5 13v8h14v-8M12 9v12"/><path d="M12 9S10.5 4 8 4a2 2 0 0 0 0 4c1.6 0 4 1 4 1Zm0 0s1.5-5 4-5a2 2 0 0 1 0 4c-1.6 0-4 1-4 1Z"/></symbol>
  <symbol id="relogio" viewBox="0 0 24 24" fill="none" stroke="currentColor" stroke-width="2" stroke-linecap="round" stroke-linejoin="round"><circle cx="12" cy="12" r="9"/><path d="M12 7v5l3 2"/></symbol>
  <symbol id="pin" viewBox="0 0 24 24" fill="none" stroke="currentColor" stroke-width="2" stroke-linecap="round" stroke-linejoin="round"><path d="M12 21s-7-6.2-7-12a7 7 0 0 1 14 0c0 5.8-7 12-7 12Z"/><circle cx="12" cy="9" r="2.5"/></symbol>
  <symbol id="telefone" viewBox="0 0 24 24" fill="none" stroke="currentColor" stroke-width="2" stroke-linecap="round" stroke-linejoin="round"><path d="M5 3h4l2 5-2.5 1.5a11 11 0 0 0 6 6L16 13l5 2v4a2 2 0 0 1-2 2A17 17 0 0 1 3 5a2 2 0 0 1 2-2Z"/></symbol>
  <symbol id="email" viewBox="0 0 24 24" fill="none" stroke="currentColor" stroke-width="2" stroke-linecap="round" stroke-linejoin="round"><rect x="3" y="5" width="18" height="14" rx="2"/><path d="m3 7 9 6 9-6"/></symbol>
  <symbol id="check" viewBox="0 0 24 24" fill="none" stroke="currentColor" stroke-width="2.4" stroke-linecap="round" stroke-linejoin="round"><path d="m5 12.5 4.5 4.5L19 7.5"/></symbol>
  <symbol id="seta-direita" viewBox="0 0 24 24" fill="none" stroke="currentColor" stroke-width="2" stroke-linecap="round" stroke-linejoin="round"><path d="M5 12h14M13 6l6 6-6 6"/></symbol>
  <symbol id="seta-esquerda" viewBox="0 0 24 24" fill="none" stroke="currentColor" stroke-width="2" stroke-linecap="round" stroke-linejoin="round"><path d="M19 12H5M11 6l-6 6 6 6"/></symbol>
  <symbol id="busca" viewBox="0 0 24 24" fill="none" stroke="currentColor" stroke-width="2" stroke-linecap="round"><circle cx="11" cy="11" r="7"/><path d="m20 20-3.5-3.5"/></symbol>
  <symbol id="olho" viewBox="0 0 24 24" fill="none" stroke="currentColor" stroke-width="2" stroke-linecap="round" stroke-linejoin="round"><path d="M2 12s3.6-7 10-7 10 7 10 7-3.6 7-10 7S2 12 2 12Z"/><circle cx="12" cy="12" r="3"/></symbol>
  <symbol id="olho-fechado" viewBox="0 0 24 24" fill="none" stroke="currentColor" stroke-width="2" stroke-linecap="round" stroke-linejoin="round"><path d="M3 3l18 18M10.6 5.1A10 10 0 0 1 12 5c6.4 0 10 7 10 7a17 17 0 0 1-3.1 3.9M6.5 6.6C3.8 8.4 2 12 2 12s3.6 7 10 7a9.6 9.6 0 0 0 5.4-1.6"/><path d="M9.9 9.9a3 3 0 0 0 4.2 4.2"/></symbol>
  <symbol id="sair" viewBox="0 0 24 24" fill="none" stroke="currentColor" stroke-width="2" stroke-linecap="round" stroke-linejoin="round"><path d="M15 4h3a2 2 0 0 1 2 2v12a2 2 0 0 1-2 2h-3M10 17l5-5-5-5M15 12H3"/></symbol>
  <symbol id="pacote" viewBox="0 0 24 24" fill="none" stroke="currentColor" stroke-width="2" stroke-linecap="round" stroke-linejoin="round"><path d="M21 8 12 3 3 8v8l9 5 9-5V8Z"/><path d="m3 8 9 5 9-5M12 13v8"/></symbol>
  <symbol id="loja" viewBox="0 0 24 24" fill="none" stroke="currentColor" stroke-width="2" stroke-linecap="round" stroke-linejoin="round"><path d="M4 10v10h16V10M3 10l2-6h14l2 6a3 3 0 0 1-6 0 3 3 0 0 1-6 0 3 3 0 0 1-6 0Z"/><path d="M10 20v-5h4v5"/></symbol>
  <symbol id="dinheiro" viewBox="0 0 24 24" fill="none" stroke="currentColor" stroke-width="2" stroke-linecap="round" stroke-linejoin="round"><rect x="2" y="6" width="20" height="12" rx="2"/><circle cx="12" cy="12" r="2.5"/><path d="M6 10v4M18 10v4"/></symbol>
  <symbol id="cartao" viewBox="0 0 24 24" fill="none" stroke="currentColor" stroke-width="2" stroke-linecap="round" stroke-linejoin="round"><rect x="2" y="5" width="20" height="14" rx="2"/><path d="M2 10h20M6 15h4"/></symbol>
  <symbol id="pix" viewBox="0 0 24 24" fill="none" stroke="currentColor" stroke-width="2" stroke-linejoin="round"><path d="m12 2.5 4 4-4 4-4-4 4-4ZM12 13.5l4 4-4 4-4-4 4-4ZM6.5 8l4 4-4 4-4-4 4-4ZM17.5 8l4 4-4 4-4-4 4-4Z"/></symbol>
  <symbol id="whatsapp" viewBox="0 0 24 24"><path fill="currentColor" d="M17.47 14.38c-.3-.15-1.76-.87-2.03-.97-.27-.1-.47-.15-.67.15-.2.3-.77.97-.94 1.16-.17.2-.35.22-.64.08-.3-.15-1.26-.47-2.39-1.48-.88-.79-1.48-1.76-1.65-2.06-.17-.3-.02-.46.13-.6.13-.14.3-.35.45-.52.15-.18.2-.3.3-.5.1-.2.05-.37-.03-.52-.07-.15-.67-1.61-.91-2.2-.24-.58-.49-.5-.67-.51h-.57c-.2 0-.52.07-.8.37-.27.3-1.03 1.02-1.03 2.48s1.06 2.88 1.21 3.07c.15.2 2.1 3.2 5.08 4.49.71.3 1.26.49 1.7.63.71.22 1.36.19 1.87.12.57-.09 1.76-.72 2-1.42.25-.69.25-1.29.18-1.41-.08-.13-.27-.2-.57-.35m-5.42 7.4h-.01a9.87 9.87 0 0 1-5.03-1.37l-.36-.22-3.74.99 1-3.65-.24-.38a9.86 9.86 0 0 1-1.51-5.26c0-5.45 4.44-9.88 9.89-9.88a9.83 9.83 0 0 1 9.88 9.89c0 5.45-4.43 9.88-9.88 9.88m8.41-18.3A11.81 11.81 0 0 0 12.05 0C5.5 0 .16 5.34.16 11.89c0 2.1.55 4.14 1.59 5.95L.06 24l6.3-1.65a11.88 11.88 0 0 0 5.69 1.45h.01c6.55 0 11.89-5.34 11.89-11.89a11.82 11.82 0 0 0-3.48-8.41Z"/></symbol>
  <symbol id="instagram" viewBox="0 0 24 24" fill="none" stroke="currentColor" stroke-width="2"><rect x="3" y="3" width="18" height="18" rx="5"/><circle cx="12" cy="12" r="4"/><circle cx="17.5" cy="6.5" r="1.2" fill="currentColor" stroke="none"/></symbol>
  <symbol id="facebook" viewBox="0 0 24 24"><path fill="currentColor" d="M14 8h3V4h-3c-2.8 0-5 2.2-5 5v2H7v4h2v9h4v-9h3l1-4h-4V9c0-.6.4-1 1-1z"/></symbol>
  <symbol id="tiktok" viewBox="0 0 24 24"><path fill="currentColor" d="M16.6 3c.4 2.3 1.9 3.9 4.4 4.1v3.3c-1.6.1-3-.4-4.4-1.2v6.2c0 3.6-2.6 6.6-6.4 6.6A6.3 6.3 0 0 1 4 15.7c0-3.9 3.4-6.9 7.4-6.3v3.5c-1.8-.5-3.8.7-3.8 2.8 0 1.6 1.3 2.8 2.8 2.8 1.6 0 2.8-1.1 2.8-3.1V3h3.4Z"/></symbol>
</svg>
